<svg width="294" height="58" viewBox="0 0 294 58" fill="none" xmlns="http://www.w3.org/2000/svg">
<path d="M107.954 28.875C107.954 33.1618 106.39 36.7341 103.262 39.5919L106.619 43.0294H102.777L101.037 41.25C98.7993 42.625 96.3994 43.3125 93.8376 43.3125C90.1973 43.3125 86.921 41.9375 84.0087 39.1875C81.1233 36.4105 79.6807 32.973 79.6807 28.875C79.6807 24.777 81.1233 21.3529 84.0087 18.6029C86.921 15.826 90.1973 14.4375 93.8376 14.4375C97.5589 14.4375 100.835 15.8125 103.667 18.5625C106.525 21.3125 107.954 24.75 107.954 28.875ZM93.8376 40.1176C95.6444 40.1176 97.2758 39.7132 98.7319 38.9044L92.7455 32.7574H96.5881L100.997 37.2868C103.262 35.1029 104.395 32.299 104.395 28.875C104.395 25.5858 103.357 22.8897 101.28 20.7868C99.2308 18.6569 96.7499 17.5919 93.8376 17.5919C91.0871 17.5919 88.6333 18.6569 86.476 20.7868C84.3457 22.9167 83.2806 25.6127 83.2806 28.875C83.2806 32.1103 84.3457 34.7929 86.476 36.9228C88.6333 39.0527 91.0871 40.1176 93.8376 40.1176Z" fill="white"/>
<path d="M129.587 22H132.823V43.0294H129.587V37.9338C129.318 39.0931 128.509 40.2794 127.16 41.4926C125.812 42.7059 124.113 43.3125 122.064 43.3125C119.799 43.3125 117.925 42.5846 116.441 41.1287C114.958 39.6728 114.217 37.4216 114.217 34.375V22H117.453V34.2941C117.453 36.424 117.911 37.9877 118.828 38.9853C119.745 39.9828 120.985 40.4816 122.549 40.4816C124.302 40.4816 125.825 39.8076 127.12 38.4596C128.414 37.0846 129.237 35.6017 129.587 34.011V22Z" fill="white"/>
<path d="M143.105 14.7206V17.7537H139.829V14.7206H143.105ZM143.105 22V43.0294H139.829V22H143.105Z" fill="white"/>
<path d="M153.694 14.7206V43.0294H150.418V14.7206H153.694Z" fill="white"/>
<path d="M164.091 14.7206V43.0294H160.814V14.7206H164.091Z" fill="white"/>
<path d="M192.932 43.0294L189.413 35.1434H176.793L173.274 43.0294H169.674L182.739 14.7206H183.467L196.491 43.0294H192.932ZM178.047 32.3125H188.159L183.103 20.9081L178.047 32.3125Z" fill="white"/>
<path d="M216.923 22H220.159V43.0294H216.923V37.9338C216.653 39.0931 215.844 40.2794 214.496 41.4926C213.148 42.7059 211.449 43.3125 209.399 43.3125C207.134 43.3125 205.26 42.5846 203.777 41.1287C202.294 39.6728 201.552 37.4216 201.552 34.375V22H204.788V34.2941C204.788 36.424 205.247 37.9877 206.164 38.9853C207.08 39.9828 208.321 40.4816 209.885 40.4816C211.638 40.4816 213.161 39.8076 214.455 38.4596C215.75 37.0846 216.572 35.6017 216.923 34.011V22Z" fill="white"/>
<path d="M243.425 14.7206H246.66V43.0294H243.425V38.9044C242.858 40.1985 241.914 41.2635 240.593 42.0993C239.272 42.9081 237.802 43.3125 236.184 43.3125C233.649 43.3125 231.357 42.3554 229.308 40.4412C227.259 38.527 226.234 35.8848 226.234 32.5147C226.234 30.7892 226.544 29.2255 227.164 27.8235C227.784 26.3946 228.58 25.2623 229.551 24.4265C230.521 23.5637 231.573 22.9032 232.706 22.4449C233.865 21.9865 235.025 21.7574 236.184 21.7574C237.829 21.7574 239.312 22.1483 240.634 22.9301C241.955 23.712 242.885 24.7365 243.425 26.0037V14.7206ZM231.654 38.3787C233.11 39.7806 234.755 40.4816 236.589 40.4816C238.422 40.4816 240.04 39.8076 241.443 38.4596C242.845 37.0846 243.546 35.1029 243.546 32.5147C243.546 29.9265 242.845 27.9583 241.443 26.6103C240.04 25.2623 238.422 24.5882 236.589 24.5882C234.755 24.5882 233.11 25.2892 231.654 26.6912C230.198 28.0931 229.47 30.0343 229.47 32.5147C229.47 34.9951 230.198 36.9498 231.654 38.3787Z" fill="white"/>
<path d="M256.716 14.7206V17.7537H253.44V14.7206H256.716ZM256.716 22V43.0294H253.44V22H256.716Z" fill="white"/>
<path d="M270.299 40.4412C271.216 40.4412 272.146 40.2255 273.09 39.7941V42.5441C272.119 43.0294 270.919 43.2721 269.49 43.2721C266.766 43.2721 265.404 41.7757 265.404 38.7831V24.6691H262.816V22H265.404V18.3603H268.64V22H273.049V24.6691H268.64V38.5C268.64 39.7941 269.193 40.4412 270.299 40.4412Z" fill="white"/>
<path d="M289.689 27.0147C288.745 25.3431 287.343 24.5074 285.482 24.5074C284.458 24.5074 283.622 24.777 282.975 25.3162C282.354 25.8284 282.044 26.462 282.044 27.2169C282.044 27.9179 282.26 28.511 282.692 28.9963C283.15 29.4816 283.932 29.913 285.038 30.2904L287.181 31.0588C289.258 31.7868 290.808 32.5821 291.833 33.4449C292.858 34.3076 293.37 35.5748 293.37 37.2463C293.37 39.0797 292.574 40.549 290.983 41.6544C289.392 42.7598 287.613 43.3125 285.644 43.3125C283.784 43.3125 282.085 42.8137 280.548 41.8162C279.011 40.8186 278.013 39.4841 277.555 37.8125L280.386 37.0441C280.736 38.0956 281.411 38.9449 282.408 39.5919C283.406 40.212 284.485 40.5221 285.644 40.5221C286.777 40.5221 287.788 40.2255 288.678 39.6324C289.568 39.0123 290.013 38.2169 290.013 37.2463C290.013 36.4105 289.73 35.723 289.163 35.1838C288.597 34.6446 287.734 34.1728 286.575 33.7684L284.148 32.9191C282.206 32.2181 280.817 31.4363 279.981 30.5735C279.146 29.7108 278.728 28.6054 278.728 27.2574C278.728 25.6936 279.375 24.386 280.669 23.3346C281.99 22.2831 283.581 21.7574 285.442 21.7574C288.813 21.7574 291.213 23.2537 292.642 26.2463L289.689 27.0147Z" fill="white"/>
<path d="M60.4176 32.2137L34.2964 57.75L31.9863 54.1407L56.686 29.236V29.1457L37.5837 9.47461L39.0053 5.41406L61.5726 28.9652L60.4176 32.2137Z" fill="white"/>
<path fill-rule="evenodd" clip-rule="evenodd" d="M19.6182 40.425C19.894 39.5047 20.2618 38.6764 20.6296 37.8481C22.1926 34.627 24.3074 31.774 26.606 29.1051C29.6402 25.6999 33.0422 22.6629 36.9039 20.178C38.5589 19.0736 40.3059 18.1533 42.2367 17.5091C42.3287 17.417 42.5126 17.417 42.6965 17.325L41.5931 18.7055C40.3978 20.178 39.1106 21.6505 38.0992 23.3071C38.0072 23.4912 37.9153 23.4912 37.7314 23.4912C36.9958 23.6752 36.1683 23.8593 35.3408 23.8593C35.6167 24.2274 36.0764 24.4115 36.4442 24.5955C36.6281 24.6876 36.9958 24.6876 37.0878 24.9637C37.0878 25.1477 36.8119 25.4238 36.72 25.6079C36.5361 26.068 36.1683 26.3441 35.7086 26.4362C34.973 26.6202 34.2375 26.8043 33.41 26.8043C33.41 26.9884 33.5019 26.9884 33.5939 27.0804C34.0536 27.4485 34.6053 27.7246 35.1569 27.9087C35.3408 28.0007 35.3408 28.0927 35.2489 28.2768C35.065 28.737 34.6972 28.921 34.2375 29.0131C33.0422 29.3812 31.8469 29.6573 30.6516 29.7493H30.5597C30.8355 30.0254 31.1113 30.2095 31.3872 30.3935C31.9388 30.6696 32.4905 30.8537 33.1341 31.0378C33.2261 31.0378 33.318 31.1298 33.2261 31.2218C32.7664 31.8661 32.3066 32.5103 31.663 32.9704C31.2033 33.4306 30.6516 33.4306 30.008 33.4306H27.8932C27.3416 33.4306 26.7899 33.4306 26.2382 33.5226C25.7785 33.6147 25.4107 33.7987 25.1349 34.1668C24.2154 35.1792 23.6638 36.4676 23.0201 37.6641L22.7443 38.2162C22.5604 38.9525 22.1007 39.3206 21.4571 39.5967C20.9054 39.6888 20.2618 40.0569 19.6182 40.425Z" fill="white"/>
<path opacity="0.98" d="M1.06617 25.6266L27.1874 0L29.4974 3.60938L4.79777 28.6043V28.6945L23.9889 48.2754L22.5673 52.3359L0 28.875L1.06617 25.6266Z" fill="white"/>
</svg>
