<svg width="29" height="24" viewBox="0 0 29 24" fill="none" xmlns="http://www.w3.org/2000/svg">
<path fill-rule="evenodd" clip-rule="evenodd" d="M28.853 1.30477C28.8296 1.20131 28.7785 1.10569 28.7048 1.02758C28.631 0.949478 28.5373 0.891656 28.4331 0.859984C28.0538 0.787078 27.6612 0.814081 27.2962 0.938201C27.2962 0.938201 1.99736 9.76273 0.552496 10.7399C0.242109 10.95 0.137444 11.0726 0.0857127 11.2162C-0.164521 11.9166 0.613851 12.2178 0.613851 12.2178L7.13438 14.2795C7.24462 14.2986 7.358 14.2922 7.46521 14.2608C8.94737 13.3514 22.383 5.11523 23.1638 4.83855C23.2841 4.80353 23.3767 4.83855 23.3526 4.92611C23.0422 5.98262 11.4317 15.9909 11.3679 16.0516C11.3368 16.0763 11.3126 16.1081 11.2975 16.1442C11.2824 16.1803 11.2768 16.2195 11.2813 16.2583L10.6725 22.4362C10.6725 22.4362 10.4175 24.359 12.3989 22.4362C13.804 21.0715 15.1527 19.9415 15.8264 19.3916C18.0688 20.8941 20.481 22.5553 21.5216 23.4251C21.6966 23.5894 21.904 23.718 22.1314 23.8028C22.3588 23.8876 22.6016 23.9272 22.8449 23.9189C23.1447 23.8834 23.4264 23.7602 23.6522 23.5656C23.8781 23.371 24.0375 23.1143 24.1094 22.8297C24.1094 22.8297 28.717 4.82454 28.871 2.41265C28.8867 2.17917 28.9071 2.02507 28.9095 1.8628C28.9171 1.67516 28.898 1.4874 28.853 1.30477Z" fill="#DDDDDD"/>
</svg>
